<svg width="383" height="333" viewBox="0 0 383 333" fill="none" xmlns="http://www.w3.org/2000/svg">
<g clip-path="url(#clip0_5_46)">
<path d="M26.0825 332.621V296.546C26.0825 296.546 11.9793 322.122 26.0825 332.621Z" fill="#F1F1F1"/>
<path d="M25.2113 332.615L51.8701 308.218C51.8701 308.218 23.4326 315.158 25.2113 332.615Z" fill="#F1F1F1"/>
<path fill-rule="evenodd" clip-rule="evenodd" d="M249.31 64.2224H247.821V93.1781H249.31V246.71C249.311 252.954 251.799 258.943 256.228 263.358C260.657 267.773 266.664 270.254 272.928 270.254H359.382C365.646 270.254 371.653 267.773 376.083 263.358C380.512 258.943 383 252.954 383 246.71V23.5436C383 20.4518 382.389 17.3903 381.202 14.5339C380.015 11.6774 378.276 9.08199 376.083 6.89576C373.889 4.70953 371.286 2.97531 368.42 1.79214C365.555 0.608961 362.484 -7.20378e-06 359.382 0H272.928C266.664 3.96792e-06 260.657 2.48049 256.228 6.89579C251.799 11.3111 249.31 17.2995 249.31 23.5437V64.2224ZM283.26 6.12523H271.975C269.659 6.12523 267.366 6.58 265.226 7.46358C263.086 8.34717 261.141 9.64226 259.504 11.2749C257.866 12.9076 256.567 14.8458 255.68 16.979C254.794 19.1122 254.338 21.3985 254.338 23.7074V246.546C254.338 251.209 256.196 255.681 259.504 258.979C262.811 262.276 267.297 264.128 271.975 264.128H358.846C361.162 264.128 363.455 263.674 365.595 262.79C367.735 261.906 369.679 260.611 371.317 258.979C372.955 257.346 374.254 255.408 375.141 253.275C376.027 251.141 376.483 248.855 376.483 246.546V23.7074C376.483 21.3984 376.027 19.1121 375.141 16.979C374.254 14.8458 372.955 12.9075 371.317 11.2749C369.679 9.64224 367.735 8.34715 365.595 7.46357C363.455 6.57998 361.162 6.12521 358.846 6.12521H348.305C348.824 7.39358 349.022 8.76972 348.882 10.1324C348.742 11.4951 348.268 12.8024 347.501 13.9394C346.735 15.0763 345.7 16.0079 344.487 16.652C343.274 17.2962 341.921 17.6332 340.547 17.6333H291.019C289.645 17.6332 288.291 17.2962 287.079 16.652C285.866 16.0079 284.831 15.0763 284.064 13.9394C283.298 12.8025 282.824 11.4951 282.683 10.1324C282.543 8.76973 282.741 7.3936 283.26 6.12523Z" fill="#3F3D56"/>
<path d="M315.41 172.388C292.079 172.388 273.165 153.534 273.165 130.276C273.165 107.017 292.079 88.1628 315.41 88.1628C338.742 88.1628 357.656 107.017 357.656 130.276C357.656 153.534 338.742 172.388 315.41 172.388Z" fill="#00B2FF"/>
<path d="M302.892 133.153L313.398 143.94C313.626 144.17 313.899 144.351 314.201 144.471C314.502 144.592 314.824 144.651 315.149 144.643H315.184C315.509 144.65 315.832 144.592 316.134 144.471C316.436 144.35 316.71 144.169 316.94 143.94L327.44 133.153C327.475 133.113 327.515 133.078 327.55 133.044C327.969 132.595 328.193 132 328.172 131.388C328.152 130.775 327.888 130.196 327.44 129.777C326.96 129.328 326.327 129.078 325.669 129.078C325.011 129.078 324.378 129.328 323.898 129.777L317.675 136.26V119.544C317.646 118.9 317.369 118.292 316.902 117.847C316.434 117.401 315.813 117.153 315.166 117.153C314.52 117.153 313.898 117.401 313.431 117.847C312.963 118.292 312.686 118.9 312.657 119.544V136.26L306.439 129.777C305.958 129.328 305.324 129.078 304.666 129.078C304.007 129.078 303.373 129.328 302.892 129.777C302.857 129.812 302.822 129.847 302.782 129.887C302.364 130.336 302.141 130.931 302.162 131.543C302.182 132.155 302.445 132.734 302.892 133.153Z" fill="white"/>
<path d="M87.7167 325.787L93.8499 325.787L96.7674 302.205L87.7157 302.205L87.7167 325.787Z" fill="#FFAFBB"/>
<path d="M86.1527 331.714L105.928 331.713V331.464C105.928 329.429 105.117 327.477 103.674 326.038C102.23 324.599 100.273 323.791 98.2311 323.791L86.1523 323.791L86.1527 331.714Z" fill="#2F2E41"/>
<path d="M134.31 325.586L140.235 324.007L136.943 300.473L128.198 302.804L134.31 325.586Z" fill="#FFAFBB"/>
<path d="M134.334 331.714L153.439 326.621L153.374 326.38C152.847 324.414 151.557 322.738 149.79 321.719C148.023 320.701 145.922 320.424 143.95 320.95L132.281 324.06L134.334 331.714Z" fill="#2F2E41"/>
<path d="M84.1884 193.627L79.0512 199.577L85.6951 320.482H99.8866L107.042 227.45L129.226 322.977L143.98 319.37L130.565 198.038L84.1884 193.627Z" fill="#2F2E41"/>
<path d="M127.135 115.569L113.005 108.504L91.2752 108.885L72.5756 118.424L83.2148 171.392L78.6189 199.009C96.3822 203.525 114.979 203.678 132.815 199.454L132.957 199.42C132.957 199.42 122.395 162.06 126.891 150.659L127.135 115.569Z" fill="#00B2FF"/>
<path d="M86.2562 87.3393C86.2719 83.1118 87.9696 79.0631 90.9766 76.0821C93.9837 73.101 98.0544 71.4312 102.295 71.439C106.536 71.4468 110.601 73.1317 113.597 76.1238C116.593 79.1159 118.275 83.1708 118.275 87.3984C118.275 91.6259 116.593 95.6808 113.597 98.6729C110.601 101.665 106.536 103.35 102.295 103.358C98.0544 103.366 93.9837 101.696 90.9766 98.7146C87.9696 95.7336 86.2719 91.685 86.2562 87.4574C86.2561 87.4181 86.2561 87.3787 86.2562 87.3393Z" fill="#FFAFBB"/>
<path d="M109.435 78.2201C108.606 77.442 107.513 77.0028 106.375 76.9895C104.664 76.9341 102.101 77.5396 101.011 78.9258C100.134 80.0398 100.092 81.5725 100.089 82.9884L100.08 86.8961C100.077 88.0522 100.063 89.2576 99.5359 90.2875C99.009 91.3174 97.7995 92.0996 96.6946 91.7485C95.3838 91.332 94.8074 89.5954 93.4679 89.2831C92.4619 89.0486 91.4285 89.7814 90.9887 90.7134C90.6173 91.6795 90.4942 92.7229 90.6306 93.7485C90.7575 95.7946 93.7013 96.6063 94.1181 98.6138C94.3592 99.775 95.2034 102.091 94.1181 101.606C89.1154 101.107 86.9197 98.1944 84.63 95.4524L79.4661 89.2682C78.8763 88.6542 78.4231 87.923 78.136 87.1226C78.008 86.5618 77.962 85.9856 77.9996 85.4117C78.0277 83.8746 78.0696 82.3379 78.1251 80.8016C78.1737 79.4593 78.5126 77.7658 79.8313 77.4899C80.5171 77.3464 81.4248 77.5966 81.7873 76.9988C81.9232 76.6991 81.9452 76.3604 81.8494 76.0458C81.5584 74.5116 81.067 72.907 81.5735 71.4296C82.3374 69.2014 84.9678 68.287 87.292 67.8666C89.6162 67.4462 92.2254 67.0846 93.6842 65.2326C94.0747 64.6176 94.4983 64.0241 94.953 63.4547C95.6222 62.8482 96.4445 62.4348 97.3316 62.2588C100.217 61.5309 103.265 61.8006 105.976 63.0236C107.1 63.5351 108.23 64.2238 109.463 64.1459C110.744 64.0649 111.838 63.1662 113.103 62.9475C115.146 62.5943 117.099 64.1201 118.106 65.927C119.353 68.1659 119.468 71.232 117.706 73.0956C116.826 74.0254 115.515 74.664 115.15 75.8888C115.001 76.3874 115.035 76.9243 114.904 77.4276C114.751 77.9286 114.459 78.3763 114.062 78.719C113.664 79.0617 113.178 79.2854 112.659 79.3643C111.409 79.5672 110.352 78.9967 109.435 78.2201Z" fill="#2F2E41"/>
<path d="M129.086 154.189C128.781 154.967 128.31 155.67 127.704 156.247C127.098 156.825 126.372 157.263 125.578 157.53C124.784 157.798 123.941 157.888 123.107 157.796C122.274 157.703 121.472 157.43 120.756 156.995L92.0644 172.114L91.1353 165.147L119.015 148.758C119.828 147.608 121.036 146.796 122.41 146.474C123.784 146.153 125.228 146.345 126.47 147.014C127.711 147.684 128.663 148.784 129.145 150.106C129.627 151.428 129.606 152.881 129.086 154.189Z" fill="#FFAFBB"/>
<path d="M90.8511 155.393C91.3188 156.087 91.9333 156.67 92.6513 157.101C93.3694 157.532 94.1736 157.801 95.0072 157.889C95.8408 157.977 96.6836 157.881 97.4762 157.609C98.2689 157.337 98.992 156.895 99.5948 156.315L130.91 164.81L130.637 155.964L99.4862 147.898C98.4404 146.953 97.0833 146.424 95.672 146.41C94.2608 146.396 92.8934 146.898 91.829 147.822C90.7646 148.746 90.0772 150.027 89.897 151.423C89.7168 152.818 90.0562 154.231 90.8511 155.393Z" fill="#FFAFBB"/>
<path d="M78.6813 118.805L72.5756 118.424C72.5756 118.424 65.427 127.827 69.3921 138.03C69.3921 138.03 68.7052 174.684 84.5382 173.178C100.371 171.672 105.374 171.672 105.374 171.672L100.621 158.457L89.9895 155.185C89.9895 155.185 93.2663 140.775 87.0637 134.78L78.6813 118.805Z" fill="#00B2FF"/>
<path d="M122.77 118.483L123.633 114.073C123.633 114.073 136.36 113.775 138.876 132.999C138.876 132.999 150.321 161.77 139.103 165.475C127.886 169.179 115.547 165.475 115.547 165.475L116.476 152.787L128.819 150.276C128.819 150.276 122.443 142.053 125.915 134.92L122.77 118.483Z" fill="#00B2FF"/>
<path d="M0.500259 333H191.1C191.233 333 191.36 332.947 191.454 332.854C191.547 332.76 191.6 332.634 191.6 332.501C191.6 332.369 191.547 332.242 191.454 332.149C191.36 332.055 191.233 332.003 191.1 332.003H0.500259C0.367584 332.003 0.240356 332.055 0.14653 332.149C0.0527191 332.242 0 332.369 0 332.501C0 332.634 0.0527191 332.76 0.14653 332.854C0.240356 332.947 0.367584 333 0.500259 333Z" fill="#00B2FF"/>
</g>
<defs>
<clipPath id="clip0_5_46">
<rect width="383" height="333" fill="white" transform="matrix(-1 0 0 1 383 0)"/>
</clipPath>
</defs>
</svg>
